<svg xmlns="http://www.w3.org/2000/svg" xmlns:xlink="http://www.w3.org/1999/xlink" width="500" zoomAndPan="magnify" viewBox="0 0 375 374.999991" height="500" preserveAspectRatio="xMidYMid meet" version="1.0"><defs><g/><clipPath id="90d02f0383"><path d="M 89 175 L 119 175 L 119 205 L 89 205 Z M 89 175 " clip-rule="nonzero"/></clipPath><clipPath id="3dee5acbc7"><path d="M 65.246094 204.152344 L 66.996094 158.4375 L 119.460938 160.449219 L 117.707031 206.164062 Z M 65.246094 204.152344 " clip-rule="nonzero"/></clipPath><clipPath id="11e3d81cfa"><path d="M 65.246094 204.152344 L 66.996094 158.4375 L 119.460938 160.449219 L 117.707031 206.164062 Z M 65.246094 204.152344 " clip-rule="nonzero"/></clipPath><clipPath id="60fbc19385"><path d="M 85 159 L 112 159 L 112 187 L 85 187 Z M 85 159 " clip-rule="nonzero"/></clipPath><clipPath id="899f300207"><path d="M 65.246094 204.152344 L 66.996094 158.4375 L 119.460938 160.449219 L 117.707031 206.164062 Z M 65.246094 204.152344 " clip-rule="nonzero"/></clipPath><clipPath id="3a464149c4"><path d="M 65.246094 204.152344 L 66.996094 158.4375 L 119.460938 160.449219 L 117.707031 206.164062 Z M 65.246094 204.152344 " clip-rule="nonzero"/></clipPath><clipPath id="bbbb62c329"><path d="M 65 169 L 102 169 L 102 205 L 65 205 Z M 65 169 " clip-rule="nonzero"/></clipPath><clipPath id="65452998b7"><path d="M 65.246094 204.152344 L 66.996094 158.4375 L 119.460938 160.449219 L 117.707031 206.164062 Z M 65.246094 204.152344 " clip-rule="nonzero"/></clipPath><clipPath id="f8f09ea0b8"><path d="M 65.246094 204.152344 L 66.996094 158.4375 L 119.460938 160.449219 L 117.707031 206.164062 Z M 65.246094 204.152344 " clip-rule="nonzero"/></clipPath></defs><rect x="-37.5" width="450" fill="#ffffff" y="-37.499999" height="449.999989" fill-opacity="1"/><rect x="-37.5" width="450" fill="#f6f6e9" y="-37.499999" height="449.999989" fill-opacity="1"/><g clip-path="url(#90d02f0383)"><g clip-path="url(#3dee5acbc7)"><g clip-path="url(#11e3d81cfa)"><path fill="#ed5b2d" d="M 118.304688 190.503906 L 103.308594 204.457031 L 89.425781 189.398438 L 104.421875 175.445312 L 118.304688 190.503906 " fill-opacity="1" fill-rule="nonzero"/></g></g></g><g clip-path="url(#60fbc19385)"><g clip-path="url(#899f300207)"><g clip-path="url(#3a464149c4)"><path fill="#0097b2" d="M 111.453125 173.410156 L 97.804688 186.109375 L 85.167969 172.402344 L 98.816406 159.703125 L 111.453125 173.410156 " fill-opacity="1" fill-rule="nonzero"/></g></g></g><g clip-path="url(#bbbb62c329)"><g clip-path="url(#65452998b7)"><g clip-path="url(#f8f09ea0b8)"><path fill="#ed411a" d="M 101.472656 187.628906 L 83.019531 204.800781 L 65.933594 186.265625 L 84.386719 169.097656 L 101.472656 187.628906 " fill-opacity="1" fill-rule="nonzero"/></g></g></g><g fill="#291b25" fill-opacity="1"><g transform="translate(125.657134, 190.679152)"><g><path d="M 5.785156 -7.039062 C 7.722656 -6.578125 9.039062 -6.070312 9.746094 -5.5 C 10.230469 -5.101562 10.472656 -4.597656 10.472656 -3.980469 C 10.472656 -3.367188 10.339844 -2.859375 10.074219 -2.507812 C 9.414062 -1.582031 8.226562 -1.121094 6.554688 -1.121094 C 4.222656 -1.121094 2.902344 -1.914062 2.617188 -3.496094 L 0.8125 -3.496094 C 1.34375 -0.96875 3.253906 0.285156 6.554688 0.285156 C 8.027344 0.285156 9.261719 -0.0234375 10.25 -0.683594 C 11.4375 -1.453125 12.054688 -2.597656 12.054688 -4.089844 C 12.054688 -5.324219 11.570312 -6.269531 10.601562 -6.929688 C 9.921875 -7.414062 8.820312 -7.851562 7.304688 -8.25 C 5.761719 -8.644531 4.773438 -8.976562 4.3125 -9.21875 C 3.300781 -9.722656 2.792969 -10.425781 2.816406 -11.351562 C 2.816406 -11.835938 2.902344 -12.253906 3.125 -12.5625 C 3.695312 -13.417969 4.707031 -13.859375 6.160156 -13.859375 C 8.203125 -13.859375 9.371094 -13.199219 9.679688 -11.921875 L 11.351562 -11.921875 C 10.800781 -14.078125 9.0625 -15.179688 6.160156 -15.179688 C 4.839844 -15.179688 3.671875 -14.828125 2.707031 -14.121094 C 1.714844 -13.417969 1.210938 -12.382812 1.210938 -10.976562 C 1.210938 -9.0625 2.75 -7.742188 5.785156 -7.039062 Z M 5.785156 -7.039062 "/></g></g></g><g fill="#291b25" fill-opacity="1"><g transform="translate(140.04287, 190.679152)"><g><path d="M 12.472656 -4.949219 L 12.472656 -14.957031 L 10.933594 -14.957031 L 10.933594 -4.730469 C 10.933594 -4.113281 10.824219 -3.609375 10.601562 -3.191406 C 9.964844 -1.957031 8.734375 -1.34375 6.90625 -1.34375 C 5.71875 -1.34375 4.773438 -1.605469 4.070312 -2.132812 C 3.253906 -2.726562 2.859375 -3.585938 2.859375 -4.730469 L 2.859375 -14.957031 L 1.320312 -14.957031 L 1.320312 -4.949219 C 1.320312 -3.320312 1.847656 -2.046875 2.902344 -1.121094 C 3.894531 -0.242188 5.234375 0.199219 6.90625 0.199219 C 8.558594 0.199219 9.875 -0.242188 10.890625 -1.121094 C 11.945312 -2.046875 12.472656 -3.320312 12.472656 -4.949219 Z M 12.472656 -4.949219 "/></g></g></g><g fill="#291b25" fill-opacity="1"><g transform="translate(155.594393, 190.679152)"><g><path d="M 3.191406 -11.019531 L 11.59375 0.925781 L 11.59375 -14.957031 L 10.054688 -14.957031 L 10.054688 -3.960938 L 1.648438 -15.902344 L 1.648438 0 L 3.191406 0 Z M 3.191406 -11.019531 "/></g></g></g><g fill="#291b25" fill-opacity="1"><g transform="translate(170.596014, 190.679152)"><g><path d="M 3.191406 -7.414062 L 3.191406 -13.484375 L 6.664062 -13.484375 C 7.566406 -13.484375 8.292969 -13.199219 8.84375 -12.648438 C 9.371094 -12.078125 9.65625 -11.371094 9.65625 -10.492188 C 9.65625 -9.589844 9.371094 -8.863281 8.800781 -8.269531 C 8.226562 -7.699219 7.523438 -7.414062 6.664062 -7.414062 Z M 11.195312 -10.449219 C 11.195312 -11.769531 10.710938 -12.847656 9.789062 -13.703125 C 8.863281 -14.539062 7.765625 -14.957031 6.445312 -14.957031 L 1.648438 -14.957031 L 1.648438 0 L 3.191406 0 L 3.191406 -5.917969 L 6.445312 -5.917969 C 7.765625 -5.917969 8.886719 -6.335938 9.789062 -7.171875 C 10.710938 -8.050781 11.195312 -9.128906 11.195312 -10.449219 Z M 11.195312 -10.449219 "/></g></g></g><g fill="#291b25" fill-opacity="1"><g transform="translate(183.991929, 190.679152)"><g><path d="M 14.828125 -7.523438 C 14.828125 -5.808594 14.210938 -4.355469 13.023438 -3.167969 C 11.8125 -1.957031 10.359375 -1.363281 8.667969 -1.363281 C 6.972656 -1.363281 5.519531 -1.957031 4.332031 -3.167969 C 3.125 -4.355469 2.53125 -5.808594 2.53125 -7.523438 C 2.53125 -9.195312 3.125 -10.648438 4.332031 -11.855469 C 5.519531 -13.042969 6.972656 -13.660156 8.667969 -13.660156 C 10.359375 -13.660156 11.8125 -13.042969 13.023438 -11.855469 C 14.210938 -10.648438 14.828125 -9.195312 14.828125 -7.523438 Z M 16.367188 -7.523438 C 16.367188 -8.578125 16.144531 -9.570312 15.75 -10.515625 C 15.355469 -11.4375 14.804688 -12.253906 14.101562 -12.957031 C 13.394531 -13.636719 12.582031 -14.1875 11.660156 -14.585938 C 10.710938 -14.980469 9.722656 -15.199219 8.667969 -15.199219 C 7.609375 -15.199219 6.597656 -14.980469 5.675781 -14.585938 C 4.75 -14.1875 3.9375 -13.636719 3.234375 -12.957031 C 2.53125 -12.253906 1.980469 -11.4375 1.582031 -10.515625 C 1.1875 -9.570312 0.988281 -8.578125 0.988281 -7.523438 C 0.988281 -6.46875 1.1875 -5.457031 1.582031 -4.53125 C 1.980469 -3.585938 2.53125 -2.773438 3.234375 -2.066406 C 3.9375 -1.363281 4.75 -0.8125 5.675781 -0.417969 C 6.597656 -0.0234375 7.609375 0.175781 8.667969 0.175781 C 9.722656 0.175781 10.710938 -0.0234375 11.660156 -0.417969 C 12.582031 -0.8125 13.394531 -1.363281 14.101562 -2.066406 C 14.804688 -2.773438 15.355469 -3.585938 15.75 -4.53125 C 16.144531 -5.457031 16.367188 -6.46875 16.367188 -7.523438 Z M 16.367188 -7.523438 "/></g></g></g><g fill="#291b25" fill-opacity="1"><g transform="translate(203.106822, 190.679152)"><g><path d="M 13.527344 1.210938 L 17.003906 -14.957031 L 15.441406 -14.957031 L 13.109375 -4.089844 L 8.621094 -15.839844 L 4.113281 -4.089844 L 1.804688 -14.957031 L 0.21875 -14.957031 L 3.71875 1.210938 L 8.621094 -11.8125 Z M 13.527344 1.210938 "/></g></g></g><g fill="#291b25" fill-opacity="1"><g transform="translate(222.089737, 190.679152)"><g><path d="M 10.535156 0 L 10.535156 -1.429688 L 3.191406 -1.429688 L 3.191406 -6.753906 L 10.316406 -6.753906 L 10.316406 -8.203125 L 3.191406 -8.203125 L 3.191406 -13.527344 L 10.535156 -13.527344 L 10.535156 -14.957031 L 1.648438 -14.957031 L 1.648438 0 Z M 10.535156 0 "/></g></g></g><g fill="#291b25" fill-opacity="1"><g transform="translate(236.035552, 190.679152)"><g><path d="M 3.191406 -7.390625 L 3.191406 -13.484375 L 6.664062 -13.484375 C 7.566406 -13.484375 8.292969 -13.199219 8.84375 -12.625 C 9.371094 -12.054688 9.65625 -11.351562 9.65625 -10.472656 C 9.65625 -9.589844 9.371094 -8.863281 8.800781 -8.269531 C 8.226562 -7.675781 7.523438 -7.390625 6.664062 -7.390625 Z M 11.195312 -10.449219 C 11.195312 -11.726562 10.710938 -12.824219 9.789062 -13.683594 C 8.886719 -14.519531 7.765625 -14.957031 6.445312 -14.957031 L 1.648438 -14.957031 L 1.648438 0 L 3.191406 0 L 3.191406 -5.917969 L 4.972656 -5.917969 L 9.371094 0 L 11.4375 0 L 6.820312 -5.917969 C 7.984375 -5.984375 8.976562 -6.402344 9.789062 -7.171875 C 10.710938 -8.027344 11.195312 -9.128906 11.195312 -10.449219 Z M 11.195312 -10.449219 "/></g></g></g><g fill="#291b25" fill-opacity="1"><g transform="translate(251.157296, 181.531641)"><g><path d="M 28.996094 -26.152344 C 24.933594 -26.097656 18.753906 -25.203125 13.441406 -23.929688 C 13.496094 -24.144531 13.550781 -24.390625 13.605469 -24.578125 C 13.660156 -24.878906 13.46875 -25.148438 13.199219 -25.203125 C 12.898438 -25.285156 12.628906 -25.09375 12.574219 -24.824219 C 12.492188 -24.445312 12.410156 -24.066406 12.304688 -23.632812 C 7.832031 -22.492188 2.710938 -20.703125 2.03125 -18.429688 C 1.816406 -17.777344 1.898438 -16.800781 3.304688 -15.828125 C 3.414062 -15.746094 3.496094 -15.71875 3.605469 -15.71875 C 3.765625 -15.71875 3.929688 -15.800781 4.039062 -15.960938 C 4.199219 -16.179688 4.144531 -16.503906 3.902344 -16.667969 C 2.820312 -17.425781 2.953125 -17.941406 3.007812 -18.128906 C 3.46875 -19.621094 7.261719 -21.191406 12.03125 -22.492188 C 11.515625 -20.324219 10.839844 -17.722656 10.136719 -15.039062 C 9.484375 -12.601562 8.835938 -10.054688 8.210938 -7.5625 C 4.6875 -6.613281 1.707031 -5.609375 1.003906 -4.933594 C 0.8125 -4.742188 0.785156 -4.417969 1.003906 -4.199219 C 1.085938 -4.09375 1.246094 -4.039062 1.382812 -4.039062 C 1.492188 -4.039062 1.625 -4.09375 1.734375 -4.199219 C 2.113281 -4.554688 4.171875 -5.367188 7.914062 -6.394531 C 6.53125 -0.785156 5.394531 4.5 5.339844 7.667969 C 5.3125 9.402344 5.746094 10.433594 6.640625 10.8125 C 6.882812 10.921875 7.128906 10.949219 7.398438 10.949219 C 9.648438 10.949219 13.199219 7.667969 17.234375 3.738281 C 17.535156 3.441406 17.832031 3.171875 18.074219 2.925781 L 18.535156 2.464844 C 18.644531 2.386719 18.753906 2.25 18.890625 2.140625 C 18.914062 2.195312 18.941406 2.222656 18.96875 2.25 C 19.214844 2.410156 19.539062 2.359375 19.703125 2.140625 C 20.757812 0.730469 21.164062 0.191406 20.703125 -0.21875 C 20.296875 -0.597656 19.808594 -0.164062 19.296875 0.324219 C 18.890625 0.703125 18.375 1.191406 17.804688 1.734375 L 17.371094 2.167969 C 17.101562 2.4375 16.800781 2.710938 16.503906 2.980469 C 13.792969 5.636719 8.753906 10.597656 7.046875 9.863281 C 6.476562 9.621094 6.367188 8.535156 6.394531 7.695312 C 6.449219 4.527344 7.640625 -1.003906 9.078125 -6.722656 C 9.703125 -6.882812 10.351562 -7.074219 11.058594 -7.234375 C 15.746094 -8.429688 20.109375 -9.269531 21.191406 -9.214844 C 21.492188 -9.1875 21.734375 -9.402344 21.734375 -9.703125 C 21.761719 -10 21.542969 -10.242188 21.246094 -10.242188 C 19.945312 -10.324219 14.363281 -9.1875 9.347656 -7.886719 C 9.945312 -10.214844 10.570312 -12.574219 11.136719 -14.769531 C 11.898438 -17.695312 12.628906 -20.488281 13.171875 -22.765625 C 18.507812 -24.117188 24.796875 -25.039062 29.023438 -25.09375 C 29.296875 -25.09375 29.539062 -25.339844 29.539062 -25.636719 C 29.539062 -25.90625 29.296875 -26.125 28.996094 -26.152344 Z M 28.996094 -26.152344 "/></g></g></g><g fill="#291b25" fill-opacity="1"><g transform="translate(274.133095, 181.531641)"><g><path d="M 11.328125 -6.015625 C 11.082031 -6.125 10.757812 -6.015625 10.648438 -5.773438 C 8.589844 -1.570312 7.046875 -0.242188 6.3125 -0.378906 C 6.015625 -0.433594 5.039062 -1.003906 4.796875 -5.746094 C 4.796875 -5.960938 4.632812 -6.152344 4.445312 -6.207031 C 4.226562 -6.261719 3.984375 -6.207031 3.875 -6.015625 C 3.710938 -5.828125 3.550781 -5.609375 3.386719 -5.367188 C 2.710938 -4.445312 1.816406 -3.199219 0.730469 -2.03125 C 0.570312 -1.84375 0.433594 -1.734375 0.351562 -1.679688 C 0.164062 -2.628906 1.164062 -6.261719 2.765625 -7.398438 C 3.226562 -7.722656 3.847656 -7.96875 4.6875 -6.992188 C 4.878906 -6.773438 5.203125 -6.746094 5.421875 -6.9375 C 5.636719 -7.101562 5.664062 -7.453125 5.5 -7.667969 C 4.472656 -8.863281 3.496094 -8.835938 2.84375 -8.617188 C 0.757812 -7.886719 -0.652344 -3.875 -0.703125 -2.03125 C -0.730469 -1.273438 -0.515625 -0.785156 -0.0820312 -0.625 C 0.597656 -0.351562 1.273438 -1.085938 1.492188 -1.328125 C 2.410156 -2.332031 3.253906 -3.414062 3.847656 -4.253906 C 4.144531 -1.164062 4.878906 0.378906 6.097656 0.652344 C 6.207031 0.652344 6.3125 0.675781 6.421875 0.675781 C 8.265625 0.675781 10.242188 -2.546875 11.570312 -5.3125 C 11.707031 -5.582031 11.597656 -5.878906 11.328125 -6.015625 Z M 11.328125 -6.015625 "/></g></g></g><g fill="#291b25" fill-opacity="1"><g transform="translate(284.2121, 181.531641)"><g><path d="M 12.058594 -6.207031 C 11.84375 -6.394531 11.515625 -6.367188 11.328125 -6.152344 C 9.1875 -3.6875 5.828125 0.242188 5.285156 0.949219 C 5.121094 1.136719 4.960938 1.355469 4.796875 1.570312 C 4.578125 1.03125 4.308594 0.515625 3.957031 -0.0273438 C 2.65625 -2.03125 1.492188 -3.929688 1.542969 -5.257812 C 1.597656 -6.3125 2.140625 -7.234375 3.035156 -7.777344 C 3.765625 -8.210938 4.578125 -8.292969 5.203125 -7.996094 C 5.445312 -7.886719 5.773438 -7.996094 5.878906 -8.265625 C 6.015625 -8.507812 5.90625 -8.835938 5.636719 -8.941406 C 4.714844 -9.375 3.523438 -9.269531 2.492188 -8.671875 C 1.300781 -7.941406 0.597656 -6.722656 0.515625 -5.3125 C 0.433594 -3.660156 1.625 -1.679688 3.089844 0.542969 C 3.550781 1.246094 3.847656 1.925781 4.039062 2.574219 C 1.925781 5.445312 -0.351562 9.132812 0.8125 10.269531 C 1.003906 10.460938 1.246094 10.542969 1.492188 10.542969 C 1.925781 10.542969 2.410156 10.324219 2.925781 9.917969 C 4.390625 8.699219 5.90625 5.933594 5.175781 2.792969 C 5.472656 2.410156 5.773438 2.003906 6.097656 1.597656 C 6.640625 0.921875 10 -3.007812 12.113281 -5.472656 C 12.304688 -5.691406 12.277344 -6.015625 12.058594 -6.207031 Z M 3.253906 7.96875 C 2.519531 9.050781 1.789062 9.484375 1.542969 9.511719 C 1.4375 9.132812 1.789062 7.5625 4.308594 3.984375 C 4.417969 5.933594 3.605469 7.425781 3.253906 7.96875 Z M 3.253906 7.96875 "/></g></g></g><g fill="#291b25" fill-opacity="1"><g transform="translate(295.131023, 181.531641)"><g><path d="M 9.160156 -6.042969 C 8.914062 -6.207031 8.589844 -6.152344 8.429688 -5.90625 C 6.394531 -3.0625 4.742188 -1.273438 3.117188 -0.109375 C 2.304688 0.460938 1.519531 0.570312 1.003906 0.191406 C 0.675781 -0.0546875 -0.324219 -1.136719 0.839844 -4.933594 C 3.46875 -7.101562 4.90625 -9.160156 4.527344 -10.242188 C 4.390625 -10.570312 4.066406 -10.785156 3.710938 -10.785156 C 2.628906 -10.757812 0.976562 -8.890625 -0.109375 -5.394531 C -1.4375 -1.085938 -0.351562 0.488281 0.40625 1.03125 C 0.785156 1.328125 1.21875 1.464844 1.707031 1.464844 C 2.332031 1.464844 3.035156 1.21875 3.710938 0.730469 C 5.445312 -0.515625 7.15625 -2.359375 9.269531 -5.3125 C 9.429688 -5.554688 9.375 -5.878906 9.160156 -6.042969 Z M 3.496094 -9.648438 C 3.386719 -9.214844 2.925781 -8.347656 1.652344 -7.046875 C 2.359375 -8.617188 3.117188 -9.375 3.496094 -9.648438 Z M 3.496094 -9.648438 "/></g></g></g></svg>